<?xml version="1.0" encoding="utf-8"?>
<!-- Generator: Adobe Illustrator 24.3.0, SVG Export Plug-In . SVG Version: 6.00 Build 0)  -->
<svg version="1.1" id="Layer_4" xmlns="http://www.w3.org/2000/svg" xmlns:xlink="http://www.w3.org/1999/xlink" x="0px" y="0px"
	 viewBox="0 0 190.9 49.3" style="enable-background:new 0 0 190.9 49.3;" xml:space="preserve">
<style type="text/css">
	.st0{clip-path:url(#SVGID_1_);fill:#E96B2B;}
	.st1{clip-path:url(#SVGID_1_);}
	.st2{clip-path:url(#SVGID_2_);}
	.st3{clip-path:url(#SVGID_3_);}
	.st4{clip-path:url(#SVGID_4_);}
</style>
<g>
	<g>
		<defs>
			<rect id="SVGID_9_" x="11.4" y="0.7" width="168.2" height="48.6"/>
		</defs>
		<clipPath id="SVGID_1_">
			<use xlink:href="#SVGID_9_"  style="overflow:visible;"/>
		</clipPath>
		<path class="st0" d="M159.4,29.2l-5.5,19l3.5,1l5.9-20.1C161.9,29.5,160.7,29.5,159.4,29.2"/>
		<path class="st0" d="M163.8,28.9l3.8,16.1l3.5-0.8l-4.2-17.6C166.2,27.7,165.1,28.5,163.8,28.9"/>
		<path class="st0" d="M158.2,14.9L142.7,4.8l-2,3l14.5,9.5C156,16.3,157,15.5,158.2,14.9"/>
		<path class="st0" d="M168.7,22.5c-0.1,1.4-0.6,2.6-1.3,3.7l9.8,8.2l2.3-2.8L168.7,22.5z"/>
		<path class="st0" d="M168.7,21.7l10.4-1.9l-0.7-3.6l-10.7,2C168.3,19.2,168.7,20.4,168.7,21.7"/>
		<path class="st0" d="M154.7,18.1l-21.1-1.8l-0.3,3.6l20.4,1.8C153.7,20.4,154,19.2,154.7,18.1"/>
		<path class="st0" d="M153.7,22.7l-20.8,8.1l1.3,3.4l20.7-8.1C154.2,25.1,153.8,24,153.7,22.7"/>
		<path class="st0" d="M167.1,17.2l4.3-10.9L168,4.9l-3.9,10C165.3,15.4,166.3,16.2,167.1,17.2"/>
		<path class="st0" d="M155.5,26.9l-14.9,16l2.6,2.5L158.6,29C157.4,28.6,156.3,27.8,155.5,26.9"/>
		<path class="st0" d="M163.1,14.6l-6-13.9l-3.3,1.5l5.4,12.5C160.4,14.3,161.7,14.3,163.1,14.6"/>
		<path class="st1" d="M112.9,14.2c0-1.3,1-2.3,2.3-2.3h1.6c1.3,0,2.3,1,2.3,2.3v4.7h-3.9c-1.3,0-2.3-1-2.3-2.3V14.2z M108.1,21.4
			c1.4,0,2.7-0.6,3.6-1.6c0.9,1,2.2,1.6,3.6,1.6h6.4v-7.2c0-2.7-2.2-4.8-4.8-4.8h-1.6c-2.7,0-4.8,2.2-4.8,4.8v2.4
			c0,1.3-1,2.3-2.3,2.3h-3.8v-8.4h-2.5v8.4h-2.4c-1.3,0-2.3-1-2.3-2.3v-4.2h-2.5v1.1v3.1v0c0,1.3-1,2.3-2.3,2.3h-0.2
			c-1.3,0-2.3-1-2.3-2.3v-5.2h-2.5v5.2c0,1.3-1,2.3-2.3,2.3h-5.4V5.4H77v16h7.9c1.4,0,2.7-0.6,3.6-1.6c0.9,1,2.2,1.6,3.6,1.6h0.2
			c1.4,0,2.7-0.6,3.6-1.6c0.9,1,2.2,1.6,3.6,1.6h2.4H108.1z"/>
		<path class="st1" d="M72.7,24.1c0.8-1,1.3-2.3,1.3-3.6v-9.6h-2.5v9.6c0,0.7-0.2,1.4-0.7,2c-0.5,0.6-1.1,1-1.8,1.1l-0.4,0.1
			l0.5,2.5l0.4-0.1C70.8,25.8,71.9,25.1,72.7,24.1"/>
		<path class="st1" d="M59.1,14.9c0-1.3,1-2.3,2.3-2.3h1.7c1.3,0,2.3,1,2.3,2.3v4h-4c-1.3,0-2.3-1-2.3-2.3V14.9z M47.3,20.3
			c1.5,0.7,3.1,1.1,4.7,1.1h9.4c0,0,0,0,0,0h4.4h2.2v-6.8h0c-0.1-2.5-2.3-4.5-4.8-4.5h-1.7c-2.7,0-4.8,2.2-4.8,4.8v1.7
			c0,0.8,0.2,1.6,0.6,2.3H52c-2.5,0-4.9-1.1-6.5-3.1l-1.2-1.5l-2,1.6l1.2,1.5C44.5,18.6,45.8,19.6,47.3,20.3"/>
	</g>
	<polygon points="95.5,7.4 97.3,9.1 99.2,7.3 97.3,5.4 95.5,7.2 93.8,5.4 91.9,7.3 93.8,9.1 	"/>
	<polygon points="97.2,3.7 95.5,2.1 94,3.7 95.5,5.3 	"/>
	<polygon points="62.6,6 60.7,4.2 58.9,6 60.7,7.9 	"/>
	<polygon points="66.3,6 64.5,4.2 62.6,6 64.5,7.9 	"/>
	<polygon points="24.4,30.1 19.1,39.1 13.7,30.1 11.4,30.1 11.4,44.1 14.1,44.1 14.1,35.4 18.4,42.5 19.7,42.5 24,35.3 24,44.1 
		26.7,44.1 26.6,30.1 	"/>
	<path d="M33.2,38.7l2.4-5.6l2.4,5.6H33.2z M36.9,30.1h-2.7l-6.3,14h2.9l1.4-3.2h6.7l1.4,3.2h2.9L36.9,30.1L36.9,30.1z"/>
	<g>
		<defs>
			<rect id="SVGID_11_" x="11.4" y="0.7" width="168.2" height="48.6"/>
		</defs>
		<clipPath id="SVGID_2_">
			<use xlink:href="#SVGID_11_"  style="overflow:visible;"/>
		</clipPath>
		<path class="st2" d="M52.5,36.7c-0.7-0.3-1.5-0.5-2.5-0.7c-0.7-0.2-1.3-0.3-1.8-0.5c-0.4-0.1-0.8-0.3-1-0.6
			c-0.3-0.2-0.4-0.5-0.4-0.9c0-0.5,0.2-0.9,0.7-1.3c0.5-0.3,1.2-0.5,2.2-0.5c0.6,0,1.2,0.1,1.9,0.3c0.6,0.2,1.3,0.4,1.9,0.8l0.1,0.1
			l0.9-2.2l-0.1-0.1c-0.6-0.4-1.3-0.7-2.1-0.9c-0.8-0.2-1.7-0.3-2.5-0.3c-1.2,0-2.3,0.2-3.1,0.6c-0.8,0.4-1.5,0.9-1.9,1.5
			c-0.4,0.6-0.6,1.4-0.6,2.1c0,0.9,0.2,1.7,0.7,2.2c0.5,0.5,1.1,0.9,1.7,1.2c0.6,0.2,1.5,0.5,2.6,0.8c0.7,0.2,1.3,0.3,1.8,0.5
			c0.4,0.1,0.8,0.3,1,0.6c0.3,0.2,0.4,0.5,0.4,0.9c0,0.5-0.2,0.9-0.7,1.2c-0.5,0.3-1.2,0.5-2.2,0.5c-0.8,0-1.6-0.1-2.4-0.4
			c-0.8-0.3-1.5-0.6-2-1.1l-0.1-0.1l-1,2.2l0.1,0.1c0.6,0.5,1.4,0.9,2.4,1.2c1,0.3,2,0.5,3.1,0.5c1.2,0,2.3-0.2,3.1-0.6
			c0.9-0.4,1.5-0.9,1.9-1.5c0.4-0.6,0.6-1.3,0.6-2.1c0-0.9-0.2-1.7-0.7-2.2C53.7,37.4,53.1,36.9,52.5,36.7"/>
	</g>
	<polygon points="66.7,35.8 59.8,35.8 59.8,30.1 57,30.1 57,44.1 59.8,44.1 59.8,38.2 66.7,38.2 66.7,44.1 69.5,44.1 69.5,30.1 
		66.7,30.1 	"/>
	<path d="M76,38.7l2.4-5.6l2.4,5.6H76z M77.1,30.1l-6.3,14h2.9l1.4-3.2h6.7l1.4,3.2h2.9l-6.3-14H77.1z"/>
	<g>
		<defs>
			<rect id="SVGID_13_" x="11.4" y="0.7" width="168.2" height="48.6"/>
		</defs>
		<clipPath id="SVGID_3_">
			<use xlink:href="#SVGID_13_"  style="overflow:visible;"/>
		</clipPath>
		<path class="st3" d="M95.5,37.1c-0.6,0.5-1.4,0.7-2.5,0.7h-2.9v-5.2H93c1.1,0,1.9,0.2,2.5,0.7c0.5,0.4,0.8,1.1,0.8,1.9
			C96.3,36,96,36.6,95.5,37.1 M98.3,37.9c0.5-0.8,0.8-1.7,0.8-2.7c0-1-0.2-1.9-0.7-2.7c-0.5-0.7-1.2-1.3-2.1-1.7
			c-0.9-0.4-2-0.6-3.2-0.6h-5.8v14h2.8v-4h3c0.2,0,0.4,0,0.5,0l2.8,4h3l-3.2-4.6C97.1,39.1,97.8,38.6,98.3,37.9"/>
	</g>
	<rect x="102.2" y="30.1" width="2.8" height="14"/>
	<g>
		<defs>
			<rect id="SVGID_15_" x="11.4" y="0.7" width="168.2" height="48.6"/>
		</defs>
		<clipPath id="SVGID_4_">
			<use xlink:href="#SVGID_15_"  style="overflow:visible;"/>
		</clipPath>
		<path class="st4" d="M118.5,40.1c-0.6,0.8-1.4,1.3-2.4,1.6v-3h-2.6v3c-1-0.3-1.8-0.8-2.4-1.6c-0.6-0.8-1-1.8-1-3
			c0-0.9,0.2-1.7,0.6-2.4c0.4-0.7,1-1.3,1.7-1.7c0.7-0.4,1.5-0.6,2.4-0.6c0.9,0,1.7,0.2,2.4,0.6c0.7,0.4,1.3,1,1.7,1.7
			c0.4,0.7,0.6,1.5,0.6,2.4C119.5,38.3,119.2,39.3,118.5,40.1 M118.6,30.8c-1.1-0.6-2.4-0.9-3.8-0.9c-1.4,0-2.7,0.3-3.8,0.9
			c-1.1,0.6-2,1.5-2.7,2.6c-0.7,1.1-1,2.3-1,3.7c0,1.2,0.3,2.3,0.8,3.4c0.5,1,1.3,1.8,2.2,2.5c0.9,0.6,2,1,3.1,1.2v2.6h2.8v-2.6
			c1.2-0.2,2.2-0.6,3.1-1.2c0.9-0.6,1.7-1.5,2.2-2.5c0.5-1,0.8-2.1,0.8-3.4c0-1.4-0.3-2.6-1-3.7C120.7,32.3,119.8,31.5,118.6,30.8"
			/>
	</g>
</g>
</svg>
